<svg width="600" height="400" viewBox="0 0 600 400" fill="none" xmlns="http://www.w3.org/2000/svg">
  <defs>
    <linearGradient id="bgPkg" x1="0%" y1="0%" x2="100%" y2="100%">
      <stop offset="0%" stop-color="#0B192C"/>
      <stop offset="50%" stop-color="#1E3E62"/>
      <stop offset="100%" stop-color="#0B192C"/>
    </linearGradient>
    <linearGradient id="goldPkg" x1="0%" y1="0%" x2="100%" y2="100%">
      <stop offset="0%" stop-color="#FCD34D"/>
      <stop offset="50%" stop-color="#F59E0B"/>
      <stop offset="100%" stop-color="#D97706"/>
    </linearGradient>
    <linearGradient id="cyanPkg" x1="0%" y1="0%" x2="100%" y2="100%">
      <stop offset="0%" stop-color="#38BDF8"/>
      <stop offset="100%" stop-color="#0284C7"/>
    </linearGradient>
  </defs>
  <rect width="600" height="400" rx="20" fill="url(#bgPkg)"/>
  <circle cx="300" cy="200" r="140" fill="url(#cyanPkg)" opacity="0.08"/>
  <circle cx="500" cy="80" r="90" fill="url(#goldPkg)" opacity="0.05"/>
  <circle cx="100" cy="320" r="100" fill="url(#cyanPkg)" opacity="0.05"/>
  
  <!-- Ticket Icon Box -->
  <rect x="240" y="100" width="120" height="120" rx="30" fill="#ffffff" fill-opacity="0.08" stroke="url(#goldPkg)" stroke-width="2"/>
  
  <!-- Ticket Pass Icon -->
  <path d="M275 140H325C327.761 140 330 142.239 330 145V153C326 153 323 156 323 160C323 164 326 167 330 167V175C330 177.761 327.761 180 325 180H275C272.239 180 270 177.761 270 175V167C274 167 277 164 277 160C277 156 274 153 270 153V145C270 142.239 272.239 140 275 140Z" stroke="url(#goldPkg)" stroke-width="3" fill="#183B56" fill-opacity="0.7"/>
  <line x1="295" y1="148" x2="295" y2="172" stroke="url(#cyanPkg)" stroke-width="2" stroke-dasharray="3 3"/>
  <circle cx="312" cy="160" r="5" fill="#FCD34D"/>

  <!-- Text -->
  <text x="300" y="265" text-anchor="middle" font-family="'Outfit', 'Segoe UI', sans-serif" font-size="22" font-weight="900" fill="#FFFFFF" letter-spacing="4">AQUABOOM</text>
  <text x="300" y="295" text-anchor="middle" font-family="'Plus Jakarta Sans', sans-serif" font-size="13" font-weight="800" fill="#FCD34D" letter-spacing="2">SPECIAL PACKAGE &amp; DEALS</text>
</svg>
